<svg width="84" height="40" viewBox="0 0 84 40" fill="none" xmlns="http://www.w3.org/2000/svg">
<path d="M7.99212 5.73602V32.76H20.9521L20.1361 39H0.120117V5.73602H7.99212Z" fill="#141414"/>
<path d="M45.3864 39H38.8104L38.4744 35.784C36.6184 38.472 34.0424 39.816 30.7464 39.816C28.4104 39.816 26.6344 39.112 25.4184 37.704C24.2344 36.296 23.6424 34.328 23.6424 31.8V13.512H31.2264V30.84C31.2264 32.088 31.4184 32.968 31.8024 33.48C32.2184 33.96 32.8424 34.2 33.6744 34.2C35.2744 34.2 36.6504 33.208 37.8024 31.224V13.512H45.3864V39Z" fill="#141414"/>
<path d="M58.9351 13.512V39H51.3511V13.512H58.9351ZM55.0951 0.0720215C56.4071 0.0720215 57.4791 0.488022 58.3111 1.32002C59.1751 2.12002 59.6071 3.14402 59.6071 4.39202C59.6071 5.64002 59.1751 6.68002 58.3111 7.51202C57.4791 8.31202 56.4071 8.71202 55.0951 8.71202C53.7831 8.71202 52.7111 8.31202 51.8791 7.51202C51.0471 6.68002 50.6311 5.64002 50.6311 4.39202C50.6311 3.14402 51.0471 2.12002 51.8791 1.32002C52.7111 0.488022 53.7831 0.0720215 55.0951 0.0720215Z" fill="#141414"/>
<path d="M82.85 13.512V18.84L71.33 33.24H83.09L82.418 39H62.546V33.624L74.114 19.224H63.554V13.512H82.85Z" fill="#141414"/>
</svg>
